# xmcd
#
# Track frame offsets: 
#        150
#        12344
#        22382
#        37225
#        48283
#        62295
#        74146
#        80386
#        96401
#        108177
#        123092
#        132729
#        144082
#        154380
#        163892
#        176051
#        186342
#
# Disc length: 2687 seconds
#
# Revision: 5
# Processed by: cddbd v1.5.2PL0 Copyright (c) Steve Scherf et al.
# Submitted via: ExactAudioCopy v0.99pb5
#
DISCID=f90a7d11
DTITLE=Various Artist - The Best Of Country and Western Vol 1 [CD02)
DYEAR=0
DGENRE=Country
TTITLE0=Johnny Cash - Folsom Prison Blues 
TTITLE1=Brenda Lee - I'm Sorry 
TTITLE2=John Denver - For You 
TTITLE3=George Jones - Where We Never Grow Old 
TTITLE4=Willie Nelson - Good Hearted Woman 
TTITLE5=Patsy Cline - Today, Tomorrow And Forever 
TTITLE6=Brenda Lee - I'll Fly Away 
TTITLE7=Anne Murray - Both Sides Now 
TTITLE8=Wanda Jackson - Sweet Dreams
TTITLE9=Kenny Rogers - Heed The Call 
TTITLE10=Lynn Anderson - Snowbird 
TTITLE11=Charley Pride - It's Gonna Take A Little Bit Longer 
TTITLE12=Loretta Lynn - Out Of My Head And Back In My Bed 
TTITLE13=Ferlin Husky - Truck Driving Son Of A Gun 
TTITLE14=Willie Nelson - Seven Spanish Angels 
TTITLE15=Wanda Jackson - It's Only Make Believe 
TTITLE16=Billie Jo Spears - Blanket On The Ground 
EXTD=
EXTT0=
EXTT1=
EXTT2=
EXTT3=
EXTT4=
EXTT5=
EXTT6=
EXTT7=
EXTT8=
EXTT9=
EXTT10=
EXTT11=
EXTT12=
EXTT13=
EXTT14=
EXTT15=
EXTT16=
PLAYORDER=
